<svg width="24" height="24" viewBox="0 0 24 24" fill="none" xmlns="http://www.w3.org/2000/svg">
<path opacity="0.5" d="M4.72848 16.1369C3.18295 14.5914 2.41018 13.8186 2.12264 12.816C1.83509 11.8134 2.08083 10.7485 2.57231 8.61875L2.85574 7.39057C3.26922 5.59881 3.47597 4.70292 4.08944 4.08944C4.70292 3.47597 5.5988 3.26922 7.39057 2.85574L8.61875 2.57231C10.7485 2.08083 11.8134 1.83509 12.816 2.12264C13.8186 2.41018 14.5914 3.18295 16.1369 4.72848L17.9665 6.55812L17.9665 6.55813C20.6555 9.24711 22 10.5916 22 12.2623C22 13.933 20.6555 15.2775 17.9665 17.9665L17.9665 17.9665L17.9665 17.9665C15.2775 20.6555 13.933 22 12.2623 22C10.5916 22 9.24711 20.6555 6.55813 17.9665L6.55812 17.9665L4.72848 16.1369Z" fill="black"/>
<path d="M10.1225 7.27135C10.9101 8.05894 10.9101 9.33587 10.1225 10.1235C9.33489 10.911 8.05796 10.911 7.27038 10.1235C6.48279 9.33587 6.48279 8.05894 7.27038 7.27135C8.05796 6.48377 9.33489 6.48377 10.1225 7.27135Z" fill="black"/>
<path d="M19.0502 12.0514L12.0712 19.0307C11.7783 19.3236 11.3034 19.3236 11.0105 19.0307C10.7176 18.7378 10.7176 18.263 11.0105 17.9701L17.9895 10.9908C18.2824 10.6979 18.7573 10.6979 19.0502 10.9908C19.3431 11.2837 19.3431 11.7586 19.0502 12.0514Z" fill="black"/>
</svg>
