<svg width="32" height="32" viewBox="0 0 32 32" fill="none" xmlns="http://www.w3.org/2000/svg">
<path d="M26.112 18C26.115 18.4101 25.9903 18.811 25.7551 19.147C25.5199 19.483 25.1859 19.7374 24.7995 19.875L18.2745 22.275L15.8745 28.8C15.7325 29.1828 15.4767 29.5129 15.1415 29.746C14.8063 29.9791 14.4078 30.104 13.9995 30.104C13.5913 30.104 13.1928 29.9791 12.8576 29.746C12.5224 29.5129 12.2666 29.1828 12.1245 28.8L9.72454 22.275L3.19954 19.875C2.81678 19.7329 2.48668 19.4771 2.25357 19.1419C2.02046 18.8068 1.89551 18.4083 1.89551 18C1.89551 17.5917 2.02046 17.1932 2.25357 16.8581C2.48668 16.5229 2.81678 16.2671 3.19954 16.125L9.72454 13.725L12.1245 7.2C12.2666 6.81725 12.5224 6.48714 12.8576 6.25403C13.1928 6.02092 13.5913 5.89597 13.9995 5.89597C14.4078 5.89597 14.8063 6.02092 15.1415 6.25403C15.4767 6.48714 15.7325 6.81725 15.8745 7.2L18.2745 13.725L24.7995 16.125C25.1859 16.2626 25.5199 16.517 25.7551 16.853C25.9903 17.189 26.115 17.5899 26.112 18ZM18.9995 6H20.9995V8C20.9995 8.26522 21.1049 8.51957 21.2924 8.70711C21.48 8.89464 21.7343 9 21.9995 9C22.2648 9 22.5191 8.89464 22.7066 8.70711C22.8942 8.51957 22.9995 8.26522 22.9995 8V6H24.9995C25.2648 6 25.5191 5.89464 25.7066 5.70711C25.8942 5.51957 25.9995 5.26522 25.9995 5C25.9995 4.73478 25.8942 4.48043 25.7066 4.29289C25.5191 4.10536 25.2648 4 24.9995 4H22.9995V2C22.9995 1.73478 22.8942 1.48043 22.7066 1.29289C22.5191 1.10536 22.2648 1 21.9995 1C21.7343 1 21.48 1.10536 21.2924 1.29289C21.1049 1.48043 20.9995 1.73478 20.9995 2V4H18.9995C18.7343 4 18.48 4.10536 18.2924 4.29289C18.1049 4.48043 17.9995 4.73478 17.9995 5C17.9995 5.26522 18.1049 5.51957 18.2924 5.70711C18.48 5.89464 18.7343 6 18.9995 6ZM29.9995 10H28.9995V9C28.9995 8.73478 28.8942 8.48043 28.7066 8.29289C28.5191 8.10536 28.2648 8 27.9995 8C27.7343 8 27.48 8.10536 27.2924 8.29289C27.1049 8.48043 26.9995 8.73478 26.9995 9V10H25.9995C25.7343 10 25.48 10.1054 25.2924 10.2929C25.1049 10.4804 24.9995 10.7348 24.9995 11C24.9995 11.2652 25.1049 11.5196 25.2924 11.7071C25.48 11.8946 25.7343 12 25.9995 12H26.9995V13C26.9995 13.2652 27.1049 13.5196 27.2924 13.7071C27.48 13.8946 27.7343 14 27.9995 14C28.2648 14 28.5191 13.8946 28.7066 13.7071C28.8942 13.5196 28.9995 13.2652 28.9995 13V12H29.9995C30.2648 12 30.5191 11.8946 30.7066 11.7071C30.8942 11.5196 30.9995 11.2652 30.9995 11C30.9995 10.7348 30.8942 10.4804 30.7066 10.2929C30.5191 10.1054 30.2648 10 29.9995 10Z" fill="#ED4C4D"/>
</svg>
