<svg width="16" height="16" viewBox="0 0 16 16" fill="none" xmlns="http://www.w3.org/2000/svg">
<path d="M8 10.75C9.51878 10.75 10.75 9.51878 10.75 8C10.75 6.48122 9.51878 5.25 8 5.25C6.48122 5.25 5.25 6.48122 5.25 8C5.25 9.51878 6.48122 10.75 8 10.75Z" stroke="#353535" stroke-width="1.5" stroke-linecap="round" stroke-linejoin="round"/>
<path d="M12.3373 5.04365C12.4877 5.25907 12.6195 5.48699 12.731 5.7249L14.3498 6.6249C14.5519 7.5302 14.554 8.4687 14.356 9.3749L12.731 10.2749C12.6195 10.5128 12.4877 10.7407 12.3373 10.9562L12.3685 12.8124C11.6825 13.4375 10.8705 13.9085 9.98727 14.1937L8.39352 13.2374C8.13136 13.2562 7.86819 13.2562 7.60602 13.2374L6.01852 14.1874C5.13247 13.9075 4.31783 13.4383 3.63102 12.8124L3.66227 10.9624C3.51307 10.744 3.38141 10.5141 3.26852 10.2749L1.64977 9.3749C1.44765 8.46961 1.44552 7.53111 1.64352 6.6249L3.26852 5.7249C3.38008 5.48699 3.51181 5.25907 3.66227 5.04365L3.63102 3.1874C4.31706 2.56226 5.12901 2.09128 6.01227 1.80615L7.60602 2.7624C7.86819 2.74365 8.13136 2.74365 8.39352 2.7624L9.98102 1.8124C10.8671 2.09234 11.6817 2.5615 12.3685 3.1874L12.3373 5.04365Z" stroke="#353535" stroke-width="1.5" stroke-linecap="round" stroke-linejoin="round"/>
</svg>
