<svg width="20" height="20" viewBox="0 0 20 20" fill="none" xmlns="http://www.w3.org/2000/svg">
<path d="M10.0005 1.875C8.39352 1.875 6.82263 2.35152 5.48648 3.24431C4.15033 4.1371 3.10893 5.40605 2.49397 6.8907C1.87901 8.37535 1.71811 10.009 2.03161 11.5851C2.34512 13.1612 3.11895 14.6089 4.25525 15.7452C5.39155 16.8815 6.83929 17.6554 8.41538 17.9689C9.99148 18.2824 11.6251 18.1215 13.1098 17.5065C14.5944 16.8916 15.8634 15.8502 16.7562 14.514C17.649 13.1779 18.1255 11.607 18.1255 10C18.1214 7.84638 17.264 5.78216 15.7412 4.25932C14.2183 2.73648 12.1541 1.87913 10.0005 1.875V1.875ZM9.84424 5.625C10.0297 5.625 10.2109 5.67998 10.3651 5.783C10.5193 5.88601 10.6394 6.03243 10.7104 6.20373C10.7813 6.37504 10.7999 6.56354 10.7637 6.7454C10.7276 6.92725 10.6383 7.0943 10.5072 7.22541C10.376 7.35652 10.209 7.44581 10.0271 7.48199C9.84528 7.51816 9.65678 7.49959 9.48548 7.42864C9.31417 7.35768 9.16775 7.23752 9.06474 7.08335C8.96173 6.92918 8.90674 6.74792 8.90674 6.5625C8.90674 6.31386 9.00551 6.0754 9.18133 5.89959C9.35714 5.72377 9.5956 5.625 9.84424 5.625ZM10.6255 14.375H10.0005C9.83473 14.375 9.67576 14.3092 9.55855 14.1919C9.44134 14.0747 9.37549 13.9158 9.37549 13.75V10C9.20973 10 9.05076 9.93415 8.93355 9.81694C8.81634 9.69973 8.75049 9.54076 8.75049 9.375C8.75049 9.20924 8.81634 9.05027 8.93355 8.93306C9.05076 8.81585 9.20973 8.75 9.37549 8.75H10.0005C10.1663 8.75 10.3252 8.81585 10.4424 8.93306C10.5596 9.05027 10.6255 9.20924 10.6255 9.375V13.125C10.7913 13.125 10.9502 13.1908 11.0674 13.3081C11.1846 13.4253 11.2505 13.5842 11.2505 13.75C11.2505 13.9158 11.1846 14.0747 11.0674 14.1919C10.9502 14.3092 10.7913 14.375 10.6255 14.375Z" fill="#2D70F2"/>
</svg>
