<svg width="16" height="16" viewBox="0 0 16 16" fill="none" xmlns="http://www.w3.org/2000/svg">
<path d="M7.16208 12.9562L7.05523 13.0629H7.20625H13.5C13.616 13.0629 13.7273 13.109 13.8094 13.1911C13.8914 13.2731 13.9375 13.3844 13.9375 13.5004C13.9375 13.6165 13.8914 13.7277 13.8094 13.8098C13.7273 13.8918 13.616 13.9379 13.5 13.9379H3C2.75136 13.9379 2.5129 13.8392 2.33709 13.6633C2.16127 13.4875 2.0625 13.2491 2.0625 13.0004L2.0625 10.2067L2.0625 10.2066C2.06239 10.0836 2.08666 9.96175 2.13391 9.84816C2.18116 9.73456 2.25045 9.63145 2.33778 9.54479L2.33794 9.54462L9.83762 2.04494C9.83767 2.04489 9.83772 2.04484 9.83777 2.0448C10.0143 1.87091 10.2522 1.77344 10.5 1.77344C10.7478 1.77344 10.9856 1.8709 11.1622 2.04476C11.1623 2.04482 11.1623 2.04488 11.1624 2.04494L13.9558 4.83837L13.956 4.83859C14.0435 4.92519 14.113 5.02826 14.1603 5.14186C14.2077 5.25547 14.2321 5.37733 14.2321 5.50042C14.2321 5.62351 14.2077 5.74538 14.1603 5.85898C14.113 5.97258 14.0435 6.07566 13.956 6.16225L13.9557 6.16256L12.3121 7.81245L12.312 7.81256L7.16208 12.9562ZM2.95581 10.1625L2.9375 10.1808V10.2067V13.0004V13.0629H3H5.79375H5.81964L5.83794 13.0446L11.8379 7.04462L11.8821 7.00042L11.8379 6.95623L9.04419 4.16248L9 4.11829L8.95581 4.16248L2.95581 10.1625Z" fill="white" stroke="white" stroke-width="0.125"/>
</svg>
