<svg width="20" height="20" viewBox="0 0 20 20" fill="none" xmlns="http://www.w3.org/2000/svg">
<path d="M17.5 5.99203L14.0391 2.52328C13.806 2.28432 13.4898 2.14441 13.1562 2.13266C12.987 2.12876 12.8187 2.15929 12.6615 2.22241C12.5044 2.28553 12.3617 2.37992 12.2422 2.49984L10.1797 4.55453L2.86719 11.8748C2.7507 11.9904 2.65828 12.128 2.59525 12.2795C2.53223 12.431 2.49985 12.5935 2.5 12.7577V16.2498C2.5 16.5814 2.6317 16.8993 2.86612 17.1337C3.10054 17.3681 3.41848 17.4998 3.75 17.4998H7.24219C7.57332 17.4984 7.89054 17.3665 8.125 17.1327L17.5 7.75766C17.7319 7.52233 17.8619 7.20522 17.8619 6.87484C17.8619 6.54447 17.7319 6.22736 17.5 5.99203V5.99203ZM15 8.49203L11.5078 4.99984L13.125 3.38266L16.6172 6.87484L15 8.49203Z" fill="#ED4C4D"/>
</svg>
