<svg width="24" height="24" viewBox="0 0 24 24" fill="none" xmlns="http://www.w3.org/2000/svg">
<path d="M3 6.75H5.16562C6.11941 6.75117 7.05918 6.9797 7.90699 7.41665C8.75481 7.8536 9.48624 8.48638 10.0406 9.2625L13.9594 14.7375C14.5138 15.5136 15.2452 16.1464 16.093 16.5833C16.9408 17.0203 17.8806 17.2488 18.8344 17.25H21.75" stroke="#353535" stroke-width="2.25" stroke-linecap="round" stroke-linejoin="round"/>
<path d="M19.5 4.5L21.75 6.75L19.5 9" stroke="#353535" stroke-width="2.25" stroke-linecap="round" stroke-linejoin="round"/>
<path d="M19.5 15L21.75 17.25L19.5 19.5" stroke="#353535" stroke-width="2.25" stroke-linecap="round" stroke-linejoin="round"/>
<path d="M14.325 8.80313C14.8859 8.15811 15.5787 7.64103 16.3567 7.28683C17.1346 6.93263 17.9795 6.74956 18.8343 6.75H21.75" stroke="black" stroke-width="2.25" stroke-linecap="round" stroke-linejoin="round"/>
<path d="M3 17.2499H5.16562C6.02041 17.2503 6.86534 17.0673 7.64329 16.7131C8.42124 16.3589 9.11409 15.8418 9.675 15.1968" stroke="black" stroke-width="2.25" stroke-linecap="round" stroke-linejoin="round"/>
</svg>
