<svg width="20" height="20" viewBox="0 0 20 20" fill="none" xmlns="http://www.w3.org/2000/svg">
<path d="M10 0.0625C8.07164 0.0625 6.18657 0.634328 4.58319 1.70567C2.97982 2.77702 1.73013 4.29976 0.992179 6.08134C0.254225 7.86292 0.061142 9.82332 0.437348 11.7146C0.813554 13.6059 1.74215 15.3432 3.10571 16.7068C4.46928 18.0704 6.20656 18.999 8.09787 19.3752C9.98919 19.7514 11.9496 19.5583 13.7312 18.8203C15.5127 18.0824 17.0355 16.8327 18.1068 15.2293C19.1782 13.6259 19.75 11.7409 19.75 9.8125C19.7451 7.22816 18.7162 4.75109 16.8888 2.92368C15.0614 1.09628 12.5843 0.0674556 10 0.0625V0.0625ZM9.81251 4.5625C10.035 4.5625 10.2525 4.62848 10.4375 4.7521C10.6225 4.87571 10.7667 5.05141 10.8519 5.25698C10.937 5.46255 10.9593 5.68875 10.9159 5.90698C10.8725 6.12521 10.7653 6.32566 10.608 6.483C10.4507 6.64033 10.2502 6.74748 10.032 6.79088C9.81375 6.83429 9.58755 6.81201 9.38199 6.72686C9.17642 6.64172 9.00072 6.49752 8.8771 6.31252C8.75348 6.12751 8.6875 5.91 8.6875 5.6875C8.6875 5.38913 8.80603 5.10298 9.01701 4.892C9.22799 4.68103 9.51414 4.5625 9.81251 4.5625ZM10.75 15.0625H10C9.80109 15.0625 9.61033 14.9835 9.46968 14.8428C9.32902 14.7022 9.25001 14.5114 9.25001 14.3125V9.8125C9.05109 9.8125 8.86033 9.73348 8.71968 9.59283C8.57902 9.45218 8.5 9.26141 8.5 9.0625C8.5 8.86359 8.57902 8.67282 8.71968 8.53217C8.86033 8.39152 9.05109 8.3125 9.25001 8.3125H10C10.1989 8.3125 10.3897 8.39152 10.5303 8.53217C10.671 8.67282 10.75 8.86359 10.75 9.0625V13.5625C10.9489 13.5625 11.1397 13.6415 11.2803 13.7822C11.421 13.9228 11.5 14.1136 11.5 14.3125C11.5 14.5114 11.421 14.7022 11.2803 14.8428C11.1397 14.9835 10.9489 15.0625 10.75 15.0625Z" fill="#707070"/>
</svg>
