<svg width="700" height="1021" viewBox="0 0 700 1021" fill="none" xmlns="http://www.w3.org/2000/svg">
<rect width="700" height="1021" rx="30" fill="#12294E"/>
<g clip-path="url(#clip0_105_52)">
<path d="M160.962 705.007C160.942 705.248 161.012 705.487 161.155 705.673C161.298 705.859 161.504 705.976 161.727 706H543.136C543.352 705.958 543.548 705.836 543.689 705.655C543.83 705.473 543.907 705.244 543.907 705.007C543.907 704.771 543.83 704.542 543.689 704.36C543.548 704.179 543.352 704.057 543.136 704.015H161.727C161.504 704.039 161.298 704.156 161.155 704.342C161.012 704.528 160.942 704.767 160.962 705.007Z" fill="#D6D6E3"/>
<path d="M365.908 607.073C365.354 611.192 363.441 614.958 360.519 617.681C357.598 620.405 353.864 621.904 350 621.904C346.137 621.904 342.402 620.405 339.481 617.681C336.56 614.958 334.647 611.192 334.092 607.073H293.393V704.015H406.608V607.073H365.908Z" fill="#D6D6E3"/>
<path d="M577.688 609.555H122.312C120.638 609.554 119.034 608.837 117.85 607.562C116.667 606.287 116.002 604.559 116 602.756V322.799C116.002 320.996 116.667 319.268 117.85 317.993C119.034 316.719 120.638 316.002 122.312 316H577.688C579.362 316.002 580.966 316.719 582.148 317.994C583.331 319.269 583.997 320.997 583.998 322.799V602.756C583.997 604.559 583.331 606.287 582.148 607.562C580.964 608.837 579.36 609.554 577.687 609.555H577.688Z" fill="#090814"/>
<path d="M573.372 327.345H127.751V598.21H573.372V327.345Z" fill="white"/>
<path d="M205.505 342.468H147.005C145.712 342.468 144.665 343.596 144.665 344.988V566.813C144.665 568.205 145.712 569.334 147.005 569.334H205.505C206.797 569.334 207.845 568.205 207.845 566.813V344.988C207.845 343.596 206.797 342.468 205.505 342.468Z" fill="#12294E"/>
<path d="M170.405 351.92H182.105C183.036 351.92 183.928 352.319 184.587 353.028C185.245 353.737 185.615 354.699 185.615 355.702V358.222C185.615 359.225 185.245 360.187 184.587 360.896C183.928 361.605 183.036 362.003 182.105 362.003H170.405C169.474 362.003 168.581 361.605 167.923 360.896C167.265 360.187 166.895 359.225 166.895 358.222V355.702C166.895 354.699 167.265 353.737 167.923 353.028C168.581 352.319 169.474 351.92 170.405 351.92Z" fill="white"/>
<path d="M155.195 549.168H197.315C197.935 549.168 198.531 549.434 198.969 549.906C199.408 550.379 199.655 551.02 199.655 551.689V556.73C199.655 557.399 199.408 558.04 198.969 558.513C198.531 558.985 197.935 559.251 197.315 559.251H155.195C154.574 559.251 153.979 558.985 153.54 558.513C153.102 558.04 152.855 557.399 152.855 556.73V551.689C152.855 551.02 153.102 550.379 153.54 549.906C153.979 549.434 154.574 549.168 155.195 549.168Z" fill="white"/>
<path d="M229.49 342.468H271.609C272.23 342.468 272.825 342.733 273.264 343.206C273.703 343.679 273.949 344.32 273.949 344.988V350.03C273.949 350.698 273.703 351.34 273.264 351.812C272.825 352.285 272.23 352.551 271.609 352.551H229.49C228.869 352.551 228.274 352.285 227.835 351.812C227.396 351.34 227.15 350.698 227.15 350.03V344.988C227.15 344.32 227.396 343.679 227.835 343.206C228.274 342.733 228.869 342.468 229.49 342.468Z" fill="#F2F2F2"/>
<path d="M316.069 366.415H231.83C229.245 366.415 227.15 368.672 227.15 371.456V416.829C227.15 419.614 229.245 421.871 231.83 421.871H316.069C318.654 421.871 320.749 419.614 320.749 416.829V371.456C320.749 368.672 318.654 366.415 316.069 366.415Z" fill="#12294E"/>
<path d="M194.975 372.086H157.535C154.95 372.086 152.855 374.344 152.855 377.128C152.855 379.912 154.95 382.169 157.535 382.169H194.975C197.56 382.169 199.655 379.912 199.655 377.128C199.655 374.344 197.56 372.086 194.975 372.086Z" fill="white"/>
<path d="M526.669 527.742H236.51C231.34 527.742 227.15 532.256 227.15 537.825V559.251C227.15 564.82 231.34 569.334 236.51 569.334H526.669C531.838 569.334 536.029 564.82 536.029 559.251V537.825C536.029 532.256 531.838 527.742 526.669 527.742Z" fill="#F2F2F2"/>
<path d="M491.569 342.468H533.688C534.309 342.468 534.904 342.733 535.343 343.206C535.782 343.679 536.028 344.32 536.028 344.988V350.03C536.028 350.698 535.782 351.34 535.343 351.812C534.904 352.285 534.309 352.551 533.688 352.551H491.569C490.948 352.551 490.353 352.285 489.914 351.812C489.475 351.34 489.229 350.698 489.229 350.03V344.988C489.229 344.32 489.475 343.679 489.914 343.206C490.353 342.733 490.948 342.468 491.569 342.468Z" fill="#12294E"/>
<path opacity="0.149" d="M194.975 387.211H157.535C154.95 387.211 152.855 389.468 152.855 392.252C152.855 395.037 154.95 397.294 157.535 397.294H194.975C197.56 397.294 199.655 395.037 199.655 392.252C199.655 389.468 197.56 387.211 194.975 387.211Z" fill="white"/>
<path opacity="0.149" d="M194.975 402.335H157.535C154.95 402.335 152.855 404.592 152.855 407.377C152.855 410.161 154.95 412.418 157.535 412.418H194.975C197.56 412.418 199.655 410.161 199.655 407.377C199.655 404.592 197.56 402.335 194.975 402.335Z" fill="white"/>
<path opacity="0.149" d="M194.975 417.46H157.535C154.95 417.46 152.855 419.717 152.855 422.501C152.855 425.285 154.95 427.543 157.535 427.543H194.975C197.56 427.543 199.655 425.285 199.655 422.501C199.655 419.717 197.56 417.46 194.975 417.46Z" fill="white"/>
<path opacity="0.149" d="M194.975 432.584H157.535C154.95 432.584 152.855 434.841 152.855 437.625C152.855 440.41 154.95 442.667 157.535 442.667H194.975C197.56 442.667 199.655 440.41 199.655 437.625C199.655 434.841 197.56 432.584 194.975 432.584Z" fill="white"/>
<path d="M531.348 366.415H447.109C444.524 366.415 442.429 368.672 442.429 371.456V416.829C442.429 419.614 444.524 421.871 447.109 421.871H531.348C533.933 421.871 536.028 419.614 536.028 416.829V371.456C536.028 368.672 533.933 366.415 531.348 366.415Z" fill="#12294E"/>
<path d="M423.709 366.415H339.469C336.884 366.415 334.789 368.672 334.789 371.456V416.829C334.789 419.614 336.884 421.871 339.469 421.871H423.709C426.293 421.871 428.389 419.614 428.389 416.829V371.456C428.389 368.672 426.293 366.415 423.709 366.415Z" fill="#12294E"/>
<path d="M526.669 478.587H236.51C231.34 478.587 227.15 483.102 227.15 488.67V510.097C227.15 515.665 231.34 520.18 236.51 520.18H526.669C531.838 520.18 536.029 515.665 536.029 510.097V488.67C536.029 483.102 531.838 478.587 526.669 478.587Z" fill="#F2F2F2"/>
<path d="M526.669 429.433H236.51C231.34 429.433 227.15 433.947 227.15 439.516V460.942C227.15 466.511 231.34 471.025 236.51 471.025H526.669C531.838 471.025 536.029 466.511 536.029 460.942V439.516C536.029 433.947 531.838 429.433 526.669 429.433Z" fill="#F2F2F2"/>
</g>
<path d="M130.304 248.336C128.096 248.336 126.112 247.952 124.352 247.184C122.624 246.384 121.264 245.296 120.272 243.92C119.28 242.512 118.768 240.896 118.736 239.072H123.392C123.552 240.64 124.192 241.968 125.312 243.056C126.464 244.112 128.128 244.64 130.304 244.64C132.384 244.64 134.016 244.128 135.2 243.104C136.416 242.048 137.024 240.704 137.024 239.072C137.024 237.792 136.672 236.752 135.968 235.952C135.264 235.152 134.384 234.544 133.328 234.128C132.272 233.712 130.848 233.264 129.056 232.784C126.848 232.208 125.072 231.632 123.728 231.056C122.416 230.48 121.28 229.584 120.32 228.368C119.392 227.12 118.928 225.456 118.928 223.376C118.928 221.552 119.392 219.936 120.32 218.528C121.248 217.12 122.544 216.032 124.208 215.264C125.904 214.496 127.84 214.112 130.016 214.112C133.152 214.112 135.712 214.896 137.696 216.464C139.712 218.032 140.848 220.112 141.104 222.704H136.304C136.144 221.424 135.472 220.304 134.288 219.344C133.104 218.352 131.536 217.856 129.584 217.856C127.76 217.856 126.272 218.336 125.12 219.296C123.968 220.224 123.392 221.536 123.392 223.232C123.392 224.448 123.728 225.44 124.4 226.208C125.104 226.976 125.952 227.568 126.944 227.984C127.968 228.368 129.392 228.816 131.216 229.328C133.424 229.936 135.2 230.544 136.544 231.152C137.888 231.728 139.04 232.64 140 233.888C140.96 235.104 141.44 236.768 141.44 238.88C141.44 240.512 141.008 242.048 140.144 243.488C139.28 244.928 138 246.096 136.304 246.992C134.608 247.888 132.608 248.336 130.304 248.336ZM170.236 224.336C170.236 227.12 169.276 229.44 167.356 231.296C165.468 233.12 162.572 234.032 158.668 234.032H152.236V248H147.868V214.544H158.668C162.444 214.544 165.308 215.456 167.26 217.28C169.244 219.104 170.236 221.456 170.236 224.336ZM158.668 230.432C161.1 230.432 162.892 229.904 164.044 228.848C165.196 227.792 165.772 226.288 165.772 224.336C165.772 220.208 163.404 218.144 158.668 218.144H152.236V230.432H158.668ZM192.417 230.768C193.633 230.96 194.737 231.456 195.729 232.256C196.753 233.056 197.553 234.048 198.129 235.232C198.737 236.416 199.041 237.68 199.041 239.024C199.041 240.72 198.609 242.256 197.745 243.632C196.881 244.976 195.617 246.048 193.953 246.848C192.321 247.616 190.385 248 188.145 248H175.665V214.544H187.665C189.937 214.544 191.873 214.928 193.473 215.696C195.073 216.432 196.273 217.44 197.073 218.72C197.873 220 198.273 221.44 198.273 223.04C198.273 225.024 197.729 226.672 196.641 227.984C195.585 229.264 194.177 230.192 192.417 230.768ZM180.033 228.992H187.377C189.425 228.992 191.009 228.512 192.129 227.552C193.249 226.592 193.809 225.264 193.809 223.568C193.809 221.872 193.249 220.544 192.129 219.584C191.009 218.624 189.393 218.144 187.281 218.144H180.033V228.992ZM187.761 244.4C189.937 244.4 191.633 243.888 192.849 242.864C194.065 241.84 194.673 240.416 194.673 238.592C194.673 236.736 194.033 235.28 192.753 234.224C191.473 233.136 189.761 232.592 187.617 232.592H180.033V244.4H187.761ZM209.374 214.544V235.712C209.374 238.688 210.094 240.896 211.534 242.336C213.006 243.776 215.038 244.496 217.63 244.496C220.19 244.496 222.19 243.776 223.63 242.336C225.102 240.896 225.838 238.688 225.838 235.712V214.544H230.206V235.664C230.206 238.448 229.646 240.8 228.526 242.72C227.406 244.608 225.886 246.016 223.966 246.944C222.078 247.872 219.95 248.336 217.582 248.336C215.214 248.336 213.07 247.872 211.15 246.944C209.262 246.016 207.758 244.608 206.638 242.72C205.55 240.8 205.006 238.448 205.006 235.664V214.544H209.374ZM260.898 248.336C258.69 248.336 256.706 247.952 254.946 247.184C253.218 246.384 251.858 245.296 250.866 243.92C249.874 242.512 249.362 240.896 249.33 239.072H253.986C254.146 240.64 254.786 241.968 255.906 243.056C257.058 244.112 258.722 244.64 260.898 244.64C262.978 244.64 264.61 244.128 265.794 243.104C267.01 242.048 267.618 240.704 267.618 239.072C267.618 237.792 267.266 236.752 266.562 235.952C265.858 235.152 264.978 234.544 263.922 234.128C262.866 233.712 261.442 233.264 259.65 232.784C257.442 232.208 255.666 231.632 254.322 231.056C253.01 230.48 251.874 229.584 250.914 228.368C249.986 227.12 249.522 225.456 249.522 223.376C249.522 221.552 249.986 219.936 250.914 218.528C251.842 217.12 253.138 216.032 254.802 215.264C256.498 214.496 258.434 214.112 260.61 214.112C263.746 214.112 266.306 214.896 268.29 216.464C270.306 218.032 271.442 220.112 271.698 222.704H266.898C266.738 221.424 266.066 220.304 264.882 219.344C263.698 218.352 262.13 217.856 260.178 217.856C258.354 217.856 256.866 218.336 255.714 219.296C254.562 220.224 253.986 221.536 253.986 223.232C253.986 224.448 254.322 225.44 254.994 226.208C255.698 226.976 256.546 227.568 257.538 227.984C258.562 228.368 259.986 228.816 261.81 229.328C264.018 229.936 265.794 230.544 267.138 231.152C268.482 231.728 269.634 232.64 270.594 233.888C271.554 235.104 272.034 236.768 272.034 238.88C272.034 240.512 271.602 242.048 270.738 243.488C269.874 244.928 268.594 246.096 266.898 246.992C265.202 247.888 263.202 248.336 260.898 248.336ZM276.83 234.752C276.83 232.064 277.374 229.712 278.462 227.696C279.55 225.648 281.038 224.064 282.926 222.944C284.846 221.824 286.974 221.264 289.31 221.264C291.614 221.264 293.614 221.76 295.31 222.752C297.006 223.744 298.27 224.992 299.102 226.496V221.696H303.518V248H299.102V243.104C298.238 244.64 296.942 245.92 295.214 246.944C293.518 247.936 291.534 248.432 289.262 248.432C286.926 248.432 284.814 247.856 282.926 246.704C281.038 245.552 279.55 243.936 278.462 241.856C277.374 239.776 276.83 237.408 276.83 234.752ZM299.102 234.8C299.102 232.816 298.702 231.088 297.902 229.616C297.102 228.144 296.014 227.024 294.638 226.256C293.294 225.456 291.806 225.056 290.174 225.056C288.542 225.056 287.054 225.44 285.71 226.208C284.366 226.976 283.294 228.096 282.494 229.568C281.694 231.04 281.294 232.768 281.294 234.752C281.294 236.768 281.694 238.528 282.494 240.032C283.294 241.504 284.366 242.64 285.71 243.44C287.054 244.208 288.542 244.592 290.174 244.592C291.806 244.592 293.294 244.208 294.638 243.44C296.014 242.64 297.102 241.504 297.902 240.032C298.702 238.528 299.102 236.784 299.102 234.8ZM315.267 212.48V248H310.899V212.48H315.267ZM346.712 233.84C346.712 234.672 346.664 235.552 346.568 236.48H325.544C325.704 239.072 326.584 241.104 328.184 242.576C329.816 244.016 331.784 244.736 334.088 244.736C335.976 244.736 337.544 244.304 338.792 243.44C340.072 242.544 340.968 241.36 341.48 239.888H346.184C345.48 242.416 344.072 244.48 341.96 246.08C339.848 247.648 337.224 248.432 334.088 248.432C331.592 248.432 329.352 247.872 327.368 246.752C325.416 245.632 323.88 244.048 322.76 242C321.64 239.92 321.08 237.52 321.08 234.8C321.08 232.08 321.624 229.696 322.712 227.648C323.8 225.6 325.32 224.032 327.272 222.944C329.256 221.824 331.528 221.264 334.088 221.264C336.584 221.264 338.792 221.808 340.712 222.896C342.632 223.984 344.104 225.488 345.128 227.408C346.184 229.296 346.712 231.44 346.712 233.84ZM342.2 232.928C342.2 231.264 341.832 229.84 341.096 228.656C340.36 227.44 339.352 226.528 338.072 225.92C336.824 225.28 335.432 224.96 333.896 224.96C331.688 224.96 329.8 225.664 328.232 227.072C326.696 228.48 325.816 230.432 325.592 232.928H342.2ZM361.789 248.432C359.773 248.432 357.965 248.096 356.365 247.424C354.765 246.72 353.501 245.76 352.573 244.544C351.645 243.296 351.133 241.872 351.037 240.272H355.549C355.677 241.584 356.285 242.656 357.373 243.488C358.493 244.32 359.949 244.736 361.741 244.736C363.405 244.736 364.717 244.368 365.677 243.632C366.637 242.896 367.117 241.968 367.117 240.848C367.117 239.696 366.605 238.848 365.581 238.304C364.557 237.728 362.973 237.168 360.829 236.624C358.877 236.112 357.277 235.6 356.029 235.088C354.813 234.544 353.757 233.76 352.861 232.736C351.997 231.68 351.565 230.304 351.565 228.608C351.565 227.264 351.965 226.032 352.765 224.912C353.565 223.792 354.701 222.912 356.173 222.272C357.645 221.6 359.325 221.264 361.213 221.264C364.125 221.264 366.477 222 368.269 223.472C370.061 224.944 371.021 226.96 371.149 229.52H366.781C366.685 228.144 366.125 227.04 365.101 226.208C364.109 225.376 362.765 224.96 361.069 224.96C359.501 224.96 358.253 225.296 357.325 225.968C356.397 226.64 355.933 227.52 355.933 228.608C355.933 229.472 356.205 230.192 356.749 230.768C357.325 231.312 358.029 231.76 358.861 232.112C359.725 232.432 360.909 232.8 362.413 233.216C364.301 233.728 365.837 234.24 367.021 234.752C368.205 235.232 369.213 235.968 370.045 236.96C370.909 237.952 371.357 239.248 371.389 240.848C371.389 242.288 370.989 243.584 370.189 244.736C369.389 245.888 368.253 246.8 366.781 247.472C365.341 248.112 363.677 248.432 361.789 248.432ZM400.96 248.336C398.752 248.336 396.768 247.952 395.008 247.184C393.28 246.384 391.92 245.296 390.928 243.92C389.936 242.512 389.424 240.896 389.392 239.072H394.048C394.208 240.64 394.848 241.968 395.968 243.056C397.12 244.112 398.784 244.64 400.96 244.64C403.04 244.64 404.672 244.128 405.856 243.104C407.072 242.048 407.68 240.704 407.68 239.072C407.68 237.792 407.328 236.752 406.624 235.952C405.92 235.152 405.04 234.544 403.984 234.128C402.928 233.712 401.504 233.264 399.712 232.784C397.504 232.208 395.728 231.632 394.384 231.056C393.072 230.48 391.936 229.584 390.976 228.368C390.048 227.12 389.584 225.456 389.584 223.376C389.584 221.552 390.048 219.936 390.976 218.528C391.904 217.12 393.2 216.032 394.864 215.264C396.56 214.496 398.496 214.112 400.672 214.112C403.808 214.112 406.368 214.896 408.352 216.464C410.368 218.032 411.504 220.112 411.76 222.704H406.96C406.8 221.424 406.128 220.304 404.944 219.344C403.76 218.352 402.192 217.856 400.24 217.856C398.416 217.856 396.928 218.336 395.776 219.296C394.624 220.224 394.048 221.536 394.048 223.232C394.048 224.448 394.384 225.44 395.056 226.208C395.76 226.976 396.608 227.568 397.6 227.984C398.624 228.368 400.048 228.816 401.872 229.328C404.08 229.936 405.856 230.544 407.2 231.152C408.544 231.728 409.696 232.64 410.656 233.888C411.616 235.104 412.096 236.768 412.096 238.88C412.096 240.512 411.664 242.048 410.8 243.488C409.936 244.928 408.656 246.096 406.96 246.992C405.264 247.888 403.264 248.336 400.96 248.336ZM441.18 221.696L425.34 260.384H420.828L426.012 247.712L415.404 221.696H420.252L428.508 243.008L436.668 221.696H441.18ZM454.883 248.432C452.867 248.432 451.059 248.096 449.459 247.424C447.859 246.72 446.595 245.76 445.667 244.544C444.739 243.296 444.227 241.872 444.131 240.272H448.643C448.771 241.584 449.379 242.656 450.467 243.488C451.587 244.32 453.043 244.736 454.835 244.736C456.499 244.736 457.811 244.368 458.771 243.632C459.731 242.896 460.211 241.968 460.211 240.848C460.211 239.696 459.699 238.848 458.675 238.304C457.651 237.728 456.067 237.168 453.923 236.624C451.971 236.112 450.371 235.6 449.123 235.088C447.907 234.544 446.851 233.76 445.955 232.736C445.091 231.68 444.659 230.304 444.659 228.608C444.659 227.264 445.059 226.032 445.859 224.912C446.659 223.792 447.795 222.912 449.267 222.272C450.739 221.6 452.419 221.264 454.307 221.264C457.219 221.264 459.571 222 461.363 223.472C463.155 224.944 464.115 226.96 464.243 229.52H459.875C459.779 228.144 459.219 227.04 458.195 226.208C457.203 225.376 455.859 224.96 454.163 224.96C452.595 224.96 451.347 225.296 450.419 225.968C449.491 226.64 449.027 227.52 449.027 228.608C449.027 229.472 449.299 230.192 449.843 230.768C450.419 231.312 451.123 231.76 451.955 232.112C452.819 232.432 454.003 232.8 455.507 233.216C457.395 233.728 458.931 234.24 460.115 234.752C461.299 235.232 462.307 235.968 463.139 236.96C464.003 237.952 464.451 239.248 464.483 240.848C464.483 242.288 464.083 243.584 463.283 244.736C462.483 245.888 461.347 246.8 459.875 247.472C458.435 248.112 456.771 248.432 454.883 248.432ZM475.977 225.296V240.8C475.977 242.08 476.249 242.992 476.793 243.536C477.337 244.048 478.281 244.304 479.625 244.304H482.841V248H478.905C476.473 248 474.649 247.44 473.433 246.32C472.217 245.2 471.609 243.36 471.609 240.8V225.296H468.201V221.696H471.609V215.072H475.977V221.696H482.841V225.296H475.977ZM512.134 233.84C512.134 234.672 512.086 235.552 511.99 236.48H490.966C491.126 239.072 492.006 241.104 493.606 242.576C495.238 244.016 497.206 244.736 499.51 244.736C501.398 244.736 502.966 244.304 504.214 243.44C505.494 242.544 506.39 241.36 506.902 239.888H511.606C510.902 242.416 509.494 244.48 507.382 246.08C505.27 247.648 502.646 248.432 499.51 248.432C497.014 248.432 494.774 247.872 492.79 246.752C490.838 245.632 489.302 244.048 488.182 242C487.062 239.92 486.502 237.52 486.502 234.8C486.502 232.08 487.046 229.696 488.134 227.648C489.222 225.6 490.742 224.032 492.694 222.944C494.678 221.824 496.95 221.264 499.51 221.264C502.006 221.264 504.214 221.808 506.134 222.896C508.054 223.984 509.526 225.488 510.55 227.408C511.606 229.296 512.134 231.44 512.134 233.84ZM507.622 232.928C507.622 231.264 507.254 229.84 506.518 228.656C505.782 227.44 504.774 226.528 503.494 225.92C502.246 225.28 500.854 224.96 499.318 224.96C497.11 224.96 495.222 225.664 493.654 227.072C492.118 228.48 491.238 230.432 491.014 232.928H507.622ZM549.531 221.216C551.579 221.216 553.403 221.648 555.003 222.512C556.603 223.344 557.867 224.608 558.795 226.304C559.723 228 560.187 230.064 560.187 232.496V248H555.867V233.12C555.867 230.496 555.211 228.496 553.899 227.12C552.619 225.712 550.875 225.008 548.667 225.008C546.395 225.008 544.587 225.744 543.243 227.216C541.899 228.656 541.227 230.752 541.227 233.504V248H536.907V233.12C536.907 230.496 536.251 228.496 534.939 227.12C533.659 225.712 531.915 225.008 529.707 225.008C527.435 225.008 525.627 225.744 524.283 227.216C522.939 228.656 522.267 230.752 522.267 233.504V248H517.899V221.696H522.267V225.488C523.131 224.112 524.283 223.056 525.723 222.32C527.195 221.584 528.811 221.216 530.571 221.216C532.779 221.216 534.731 221.712 536.427 222.704C538.123 223.696 539.387 225.152 540.219 227.072C540.955 225.216 542.171 223.776 543.867 222.752C545.563 221.728 547.451 221.216 549.531 221.216Z" fill="white"/>
<defs>
<clipPath id="clip0_105_52">
<rect width="468" height="390" fill="white" transform="translate(116 316)"/>
</clipPath>
</defs>
</svg>
