<svg width="16" height="16" viewBox="0 0 16 16" fill="none" xmlns="http://www.w3.org/2000/svg">
<path d="M14.7225 8C14.5995 8.2455 14.1171 9.15447 13.2008 10.0761C11.7694 11.5011 9.97761 12.25 8 12.25C6.02239 12.25 4.23059 11.5011 2.79925 10.0761C1.8829 9.15449 1.40045 8.2455 1.27753 8C1.40045 7.7545 1.8829 6.84551 2.79925 5.92391C4.23058 4.49887 6.02239 3.75 8 3.75C9.9776 3.75 11.7694 4.49887 13.2007 5.92391C14.1171 6.84551 14.5995 7.75449 14.7225 8ZM9.66671 5.50559C9.17336 5.17595 8.59334 5 8 5C7.20435 5 6.44129 5.31607 5.87868 5.87868C5.31607 6.44129 5 7.20435 5 8C5 8.59334 5.17594 9.17336 5.50559 9.66671C5.83523 10.1601 6.30377 10.5446 6.85195 10.7716C7.40012 10.9987 8.00332 11.0581 8.58527 10.9424C9.16721 10.8266 9.70176 10.5409 10.1213 10.1213C10.5409 9.70176 10.8266 9.16722 10.9424 8.58527C11.0581 8.00333 10.9987 7.40013 10.7716 6.85195C10.5446 6.30377 10.1601 5.83524 9.66671 5.50559Z" fill="#353535" stroke="#353535" stroke-width="1.5"/>
</svg>
