<svg width="16" height="16" viewBox="0 0 16 16" fill="none" xmlns="http://www.w3.org/2000/svg">
<path d="M11 10.25L12.375 13.75L13.75 10.25" stroke="#353535" stroke-width="1.5" stroke-linecap="round" stroke-linejoin="round"/>
<path d="M9.25 2.25V6.25H13.25" stroke="#353535" stroke-width="1.5" stroke-linecap="round" stroke-linejoin="round"/>
<path d="M2.75 7.75V2.75C2.75 2.61739 2.80268 2.49021 2.89645 2.39645C2.99021 2.30268 3.11739 2.25 3.25 2.25H9.75L13.25 5.75V7.75" stroke="#353535" stroke-width="1.5" stroke-linecap="round" stroke-linejoin="round"/>
<path d="M7 13.4C7.26244 13.6219 7.59386 13.7456 7.9375 13.75C8.5 13.75 9 13.5375 9 12.8375C9 11.7187 7 12.2125 7 11.1625C7 10.6 7.375 10.25 7.9375 10.25C8.28114 10.2544 8.61256 10.3781 8.875 10.6" stroke="#353535" stroke-width="1.5" stroke-linecap="round" stroke-linejoin="round"/>
<path d="M4.75 13.475C4.49383 13.655 4.1881 13.7511 3.875 13.75C2.975 13.75 2.25 12.9688 2.25 12C2.25 11.0313 2.975 10.25 3.875 10.25C4.1881 10.2489 4.49383 10.345 4.75 10.525" stroke="#353535" stroke-width="1.5" stroke-linecap="round" stroke-linejoin="round"/>
</svg>
