<svg width="16" height="17" viewBox="0 0 16 17" fill="none" xmlns="http://www.w3.org/2000/svg">
<path d="M13.5 6.20625V13.5C13.5 13.6326 13.4473 13.7598 13.3536 13.8536C13.2598 13.9473 13.1326 14 13 14H3C2.86739 14 2.74021 13.9473 2.64645 13.8536C2.55268 13.7598 2.5 13.6326 2.5 13.5V3.5C2.5 3.36739 2.55268 3.24022 2.64645 3.14645C2.74021 3.05268 2.86739 3 3 3H10.2937C10.3587 2.99978 10.423 3.01236 10.4831 3.03702C10.5431 3.06169 10.5977 3.09796 10.6438 3.14375L13.3562 5.85625C13.402 5.90228 13.4383 5.95688 13.463 6.01694C13.4876 6.07699 13.5002 6.14133 13.5 6.20625V6.20625Z" stroke="white" stroke-width="1.5" stroke-linecap="round" stroke-linejoin="round"/>
<path d="M5 14V10C5 9.86739 5.05268 9.74021 5.14645 9.64645C5.24021 9.55268 5.36739 9.5 5.5 9.5H10.5C10.6326 9.5 10.7598 9.55268 10.8536 9.64645C10.9473 9.74021 11 9.86739 11 10V14" stroke="white" stroke-width="1.5" stroke-linecap="round" stroke-linejoin="round"/>
<path d="M9.5 5.5H6" stroke="white" stroke-width="1.5" stroke-linecap="round" stroke-linejoin="round"/>
</svg>
