<svg width="17" height="16" viewBox="0 0 17 16" fill="none" xmlns="http://www.w3.org/2000/svg">
<path d="M14.1666 4.5H11.9791C12.2941 4.1023 12.4461 3.59978 12.4044 3.0942C12.3628 2.58862 12.1306 2.11776 11.7548 1.77695C11.3791 1.43615 10.8878 1.25087 10.3806 1.25863C9.87337 1.26639 9.38804 1.46661 9.02288 1.81875C8.87558 1.96785 8.75507 2.14122 8.66663 2.33125C8.57819 2.14122 8.45767 1.96785 8.31038 1.81875C7.94522 1.46661 7.45988 1.26639 6.95265 1.25863C6.44542 1.25087 5.95419 1.43615 5.57843 1.77695C5.20267 2.11776 4.97046 2.58862 4.92881 3.0942C4.88717 3.59978 5.0392 4.1023 5.35413 4.5H3.16663C2.90141 4.5 2.64706 4.60535 2.45952 4.79289C2.27198 4.98043 2.16663 5.23478 2.16663 5.5V7.5C2.16663 7.76521 2.27198 8.01957 2.45952 8.2071C2.64706 8.39464 2.90141 8.5 3.16663 8.5V12.5C3.16663 12.7652 3.27198 13.0196 3.45952 13.2071C3.64706 13.3946 3.90141 13.5 4.16663 13.5H13.1666C13.4318 13.5 13.6862 13.3946 13.8737 13.2071C14.0613 13.0196 14.1666 12.7652 14.1666 12.5V8.5C14.4318 8.5 14.6862 8.39464 14.8737 8.2071C15.0613 8.01957 15.1666 7.76521 15.1666 7.5V5.5C15.1666 5.23478 15.0613 4.98043 14.8737 4.79289C14.6862 4.60535 14.4318 4.5 14.1666 4.5ZM9.72913 2.525C9.82008 2.42461 9.93049 2.34375 10.0536 2.28732C10.1768 2.2309 10.3101 2.20008 10.4456 2.19675C10.581 2.19342 10.7157 2.21763 10.8415 2.26793C10.9672 2.31822 11.0815 2.39355 11.1773 2.48934C11.2731 2.58513 11.3484 2.69938 11.3987 2.82516C11.449 2.95095 11.4732 3.08564 11.4699 3.22106C11.4665 3.35649 11.4357 3.48982 11.3793 3.61298C11.3229 3.73613 11.242 3.84654 11.1416 3.9375C10.8354 4.25 9.94163 4.41875 9.18538 4.48125C9.24788 3.725 9.41663 2.83125 9.72913 2.525ZM6.19163 2.525C6.37989 2.33949 6.63358 2.23551 6.89788 2.23551C7.16217 2.23551 7.41586 2.33949 7.60413 2.525C7.91663 2.83125 8.08538 3.725 8.14788 4.48125C7.39163 4.41875 6.49788 4.25 6.19163 3.9375C6.00612 3.74923 5.90214 3.49555 5.90214 3.23125C5.90214 2.96695 6.00612 2.71326 6.19163 2.525ZM14.1666 7.5H9.16663V12C9.16663 12.1326 9.11395 12.2598 9.02018 12.3535C8.92641 12.4473 8.79923 12.5 8.66663 12.5C8.53402 12.5 8.40684 12.4473 8.31307 12.3535C8.2193 12.2598 8.16663 12.1326 8.16663 12V7.5H3.16663V5.5H8.16663V7.5H9.16663V5.5H14.1666V7.5Z" fill="#ED4C4D"/>
</svg>
