<svg width="12" height="21" viewBox="0 0 12 21" fill="none" xmlns="http://www.w3.org/2000/svg">
<path d="M3 2C3 2.29667 2.91203 2.58668 2.74721 2.83336C2.58238 3.08003 2.34811 3.27229 2.07403 3.38582C1.79994 3.49935 1.49834 3.52906 1.20736 3.47118C0.916393 3.4133 0.649119 3.27044 0.43934 3.06066C0.229562 2.85088 0.0867006 2.58361 0.0288228 2.29264C-0.0290551 2.00166 0.000649929 1.70006 0.114181 1.42598C0.227713 1.15189 0.419972 0.917619 0.666646 0.752797C0.91332 0.587974 1.20333 0.500001 1.5 0.500001C1.89783 0.500001 2.27936 0.658036 2.56066 0.93934C2.84197 1.22065 3 1.60218 3 2ZM10.5 3.5C10.7967 3.5 11.0867 3.41203 11.3334 3.24721C11.58 3.08238 11.7723 2.84811 11.8858 2.57403C11.9994 2.29994 12.0291 1.99834 11.9712 1.70737C11.9133 1.41639 11.7704 1.14912 11.5607 0.93934C11.3509 0.729562 11.0836 0.586701 10.7926 0.528823C10.5017 0.470945 10.2001 0.50065 9.92598 0.614181C9.65189 0.727713 9.41762 0.919972 9.2528 1.16665C9.08797 1.41332 9 1.70333 9 2C9 2.39783 9.15804 2.77936 9.43934 3.06066C9.72065 3.34197 10.1022 3.5 10.5 3.5ZM1.5 9C1.20333 9 0.91332 9.08797 0.666646 9.2528C0.419972 9.41762 0.227713 9.65189 0.114181 9.92598C0.000649929 10.2001 -0.0290551 10.5017 0.0288228 10.7926C0.0867006 11.0836 0.229562 11.3509 0.43934 11.5607C0.649119 11.7704 0.916393 11.9133 1.20736 11.9712C1.49834 12.0291 1.79994 11.9994 2.07403 11.8858C2.34811 11.7723 2.58238 11.58 2.74721 11.3334C2.91203 11.0867 3 10.7967 3 10.5C3 10.1022 2.84197 9.72064 2.56066 9.43934C2.27936 9.15804 1.89783 9 1.5 9ZM10.5 9C10.2033 9 9.91332 9.08797 9.66665 9.2528C9.41997 9.41762 9.22771 9.65189 9.11418 9.92598C9.00065 10.2001 8.97095 10.5017 9.02882 10.7926C9.0867 11.0836 9.22956 11.3509 9.43934 11.5607C9.64912 11.7704 9.91639 11.9133 10.2074 11.9712C10.4983 12.0291 10.7999 11.9994 11.074 11.8858C11.3481 11.7723 11.5824 11.58 11.7472 11.3334C11.912 11.0867 12 10.7967 12 10.5C12 10.1022 11.842 9.72064 11.5607 9.43934C11.2794 9.15804 10.8978 9 10.5 9ZM1.5 17.5C1.20333 17.5 0.91332 17.588 0.666646 17.7528C0.419972 17.9176 0.227713 18.1519 0.114181 18.426C0.000649929 18.7001 -0.0290551 19.0017 0.0288228 19.2926C0.0867006 19.5836 0.229562 19.8509 0.43934 20.0607C0.649119 20.2704 0.916393 20.4133 1.20736 20.4712C1.49834 20.5291 1.79994 20.4993 2.07403 20.3858C2.34811 20.2723 2.58238 20.08 2.74721 19.8334C2.91203 19.5867 3 19.2967 3 19C3 18.6022 2.84197 18.2206 2.56066 17.9393C2.27936 17.658 1.89783 17.5 1.5 17.5ZM10.5 17.5C10.2033 17.5 9.91332 17.588 9.66665 17.7528C9.41997 17.9176 9.22771 18.1519 9.11418 18.426C9.00065 18.7001 8.97095 19.0017 9.02882 19.2926C9.0867 19.5836 9.22956 19.8509 9.43934 20.0607C9.64912 20.2704 9.91639 20.4133 10.2074 20.4712C10.4983 20.5291 10.7999 20.4993 11.074 20.3858C11.3481 20.2723 11.5824 20.08 11.7472 19.8334C11.912 19.5867 12 19.2967 12 19C12 18.6022 11.842 18.2206 11.5607 17.9393C11.2794 17.658 10.8978 17.5 10.5 17.5Z" fill="#2D70F2"/>
</svg>
