<svg width="16" height="16" viewBox="0 0 16 16" fill="none" xmlns="http://www.w3.org/2000/svg">
<path d="M12.5 14C13.3284 14 14 13.3284 14 12.5C14 11.6716 13.3284 11 12.5 11C11.6716 11 11 11.6716 11 12.5C11 13.3284 11.6716 14 12.5 14Z" stroke="#353535" stroke-width="1.5" stroke-linecap="round" stroke-linejoin="round"/>
<path d="M4.5 3.5H10.5C11.0304 3.5 11.5391 3.71071 11.9142 4.08579C12.2893 4.46086 12.5 4.96957 12.5 5.5C12.5 6.03043 12.2893 6.53914 11.9142 6.91421C11.5391 7.28929 11.0304 7.5 10.5 7.5H4.5C3.83696 7.5 3.20107 7.76339 2.73223 8.23223C2.26339 8.70107 2 9.33696 2 10C2 10.663 2.26339 11.2989 2.73223 11.7678C3.20107 12.2366 3.83696 12.5 4.5 12.5H11" stroke="#353535" stroke-width="1.5" stroke-linecap="round" stroke-linejoin="round"/>
</svg>
