<svg width="20" height="20" viewBox="0 0 20 20" fill="none" xmlns="http://www.w3.org/2000/svg">
<path d="M16.875 3.125H3.12501C2.79349 3.125 2.47555 3.2567 2.24113 3.49112C2.00671 3.72554 1.87501 4.04348 1.87501 4.375V16.25C1.87437 16.3567 1.90139 16.4617 1.95342 16.5548C2.00545 16.6479 2.08072 16.7259 2.17189 16.7813C2.26232 16.8381 2.36582 16.8708 2.4725 16.8763C2.57918 16.8818 2.68548 16.8598 2.78126 16.8125L5.00001 15.6953L7.21876 16.8125C7.3065 16.8547 7.40263 16.8767 7.50001 16.8767C7.59739 16.8767 7.69352 16.8547 7.78126 16.8125L10 15.6953L12.2188 16.8125C12.3068 16.8537 12.4028 16.875 12.5 16.875C12.5972 16.875 12.6932 16.8537 12.7813 16.8125L15 15.6953L17.2188 16.8125C17.3145 16.8598 17.4208 16.8818 17.5275 16.8763C17.6342 16.8708 17.7377 16.8381 17.8281 16.7813C17.9193 16.7259 17.9946 16.6479 18.0466 16.5548C18.0986 16.4617 18.1256 16.3567 18.125 16.25V4.375C18.125 4.04348 17.9933 3.72554 17.7589 3.49112C17.5245 3.2567 17.2065 3.125 16.875 3.125ZM14.0625 11.25H5.93751C5.77175 11.25 5.61278 11.1842 5.49557 11.0669C5.37836 10.9497 5.31251 10.7908 5.31251 10.625C5.31251 10.4592 5.37836 10.3003 5.49557 10.1831C5.61278 10.0658 5.77175 10 5.93751 10H14.0625C14.2283 10 14.3872 10.0658 14.5045 10.1831C14.6217 10.3003 14.6875 10.4592 14.6875 10.625C14.6875 10.7908 14.6217 10.9497 14.5045 11.0669C14.3872 11.1842 14.2283 11.25 14.0625 11.25ZM14.0625 8.75H5.93751C5.77175 8.75 5.61278 8.68415 5.49557 8.56694C5.37836 8.44973 5.31251 8.29076 5.31251 8.125C5.31251 7.95924 5.37836 7.80027 5.49557 7.68306C5.61278 7.56585 5.77175 7.5 5.93751 7.5H14.0625C14.2283 7.5 14.3872 7.56585 14.5045 7.68306C14.6217 7.80027 14.6875 7.95924 14.6875 8.125C14.6875 8.29076 14.6217 8.44973 14.5045 8.56694C14.3872 8.68415 14.2283 8.75 14.0625 8.75Z" fill="#ED4C4D"/>
</svg>
