<svg width="20" height="20" viewBox="0 0 20 20" fill="none" xmlns="http://www.w3.org/2000/svg">
<path d="M18.1406 4.03929V7.78929C18.1406 7.95505 18.0748 8.11402 17.9576 8.23123C17.8404 8.34844 17.6814 8.41429 17.5156 8.41429H13.7656C13.6426 8.41409 13.5224 8.3776 13.4201 8.3094C13.3177 8.24119 13.2378 8.14431 13.1902 8.03088C13.1427 7.91744 13.1297 7.7925 13.1528 7.67171C13.176 7.55091 13.2342 7.43962 13.3203 7.35179L14.7578 5.91429L14.4219 5.57835C13.2475 4.40856 11.6575 3.75177 10 3.75177C8.34246 3.75177 6.75245 4.40856 5.57813 5.57835C5.52064 5.63717 5.45198 5.68391 5.37618 5.71582C5.30038 5.74773 5.21896 5.76417 5.13672 5.76417C5.05447 5.76417 4.97306 5.74773 4.89726 5.71582C4.82146 5.68391 4.7528 5.63717 4.69531 5.57835C4.57843 5.46118 4.51279 5.30244 4.51279 5.13694C4.51279 4.97145 4.57843 4.8127 4.69531 4.69554C6.10397 3.29199 8.01146 2.50391 10 2.50391C11.9885 2.50391 13.896 3.29199 15.3047 4.69554L15.6406 5.03148L17.0703 3.60179C17.157 3.5138 17.2679 3.45348 17.3888 3.42845C17.5098 3.40342 17.6355 3.41481 17.75 3.46116C17.864 3.50947 17.9616 3.58978 18.0309 3.69238C18.1002 3.79498 18.1384 3.91548 18.1406 4.03929ZM14.4219 14.4221C13.2475 15.5919 11.6575 16.2487 10 16.2487C8.34246 16.2487 6.75245 15.5919 5.57813 14.4221L5.24219 14.0862L6.67969 12.6487C6.76578 12.5608 6.82405 12.4495 6.84719 12.3287C6.87033 12.2079 6.85731 12.083 6.80977 11.9696C6.76223 11.8561 6.68227 11.7593 6.57992 11.6911C6.47757 11.6229 6.35737 11.5864 6.23438 11.5862H2.48438C2.31861 11.5862 2.15964 11.652 2.04243 11.7692C1.92522 11.8864 1.85938 12.0454 1.85938 12.2112V15.9612C1.86165 16.085 1.89975 16.2055 1.96908 16.3081C2.0384 16.4107 2.13598 16.491 2.25 16.5393C2.32438 16.5698 2.40396 16.5858 2.48438 16.5862C2.56746 16.5869 2.64983 16.5707 2.72641 16.5384C2.80299 16.5062 2.87217 16.4586 2.92969 16.3987L4.35938 14.969L4.69531 15.3049C6.10296 16.7104 8.01083 17.4998 10 17.4998C11.9892 17.4998 13.897 16.7104 15.3047 15.3049C15.4216 15.1877 15.4872 15.029 15.4872 14.8635C15.4872 14.698 15.4216 14.5393 15.3047 14.4221C15.2472 14.3633 15.1785 14.3165 15.1027 14.2846C15.0269 14.2527 14.9455 14.2363 14.8633 14.2363C14.781 14.2363 14.6996 14.2527 14.6238 14.2846C14.548 14.3165 14.4794 14.3633 14.4219 14.4221V14.4221Z" fill="#ED4C4D"/>
</svg>
