<svg width="20" height="20" viewBox="0 0 20 20" fill="none" xmlns="http://www.w3.org/2000/svg">
<path d="M18.4921 14.6876L11.6249 2.81263C11.4605 2.52703 11.2237 2.2898 10.9384 2.12485C10.6532 1.9599 10.3294 1.87305 9.99991 1.87305C9.67037 1.87305 9.34665 1.9599 9.06136 2.12485C8.77608 2.2898 8.53931 2.52703 8.37491 2.81263L1.50772 14.6876C1.3409 14.9718 1.25224 15.295 1.25075 15.6245C1.24926 15.954 1.335 16.278 1.49924 16.5637C1.66349 16.8493 1.9004 17.0864 2.18593 17.2509C2.47145 17.4154 2.79541 17.5014 3.12491 17.5001H16.8749C17.2044 17.5014 17.5284 17.4154 17.8139 17.2509C18.0994 17.0864 18.3363 16.8493 18.5006 16.5637C18.6648 16.278 18.7505 15.954 18.7491 15.6245C18.7476 15.295 18.6589 14.9718 18.4921 14.6876ZM9.37491 8.12513C9.37491 7.95937 9.44075 7.8004 9.55796 7.68319C9.67517 7.56598 9.83415 7.50013 9.99991 7.50013C10.1657 7.50013 10.3246 7.56598 10.4418 7.68319C10.5591 7.8004 10.6249 7.95937 10.6249 8.12513V11.2501C10.6249 11.4159 10.5591 11.5749 10.4418 11.6921C10.3246 11.8093 10.1657 11.8751 9.99991 11.8751C9.83415 11.8751 9.67517 11.8093 9.55796 11.6921C9.44075 11.5749 9.37491 11.4159 9.37491 11.2501V8.12513ZM9.99991 15.0001C9.81449 15.0001 9.63323 14.9451 9.47906 14.8421C9.32489 14.7391 9.20473 14.5927 9.13377 14.4214C9.06281 14.2501 9.04425 14.0616 9.08042 13.8797C9.11659 13.6979 9.20588 13.5308 9.33699 13.3997C9.4681 13.2686 9.63515 13.1793 9.81701 13.1431C9.99887 13.107 10.1874 13.1255 10.3587 13.1965C10.53 13.2675 10.6764 13.3876 10.7794 13.5418C10.8824 13.696 10.9374 13.8772 10.9374 14.0626C10.9374 14.3113 10.8386 14.5497 10.6628 14.7255C10.487 14.9014 10.2485 15.0001 9.99991 15.0001Z" fill="#F2C94C"/>
</svg>
